<svg width="86" height="86" viewBox="0 0 86 86" fill="none" xmlns="http://www.w3.org/2000/svg">
<circle cx="43" cy="43" r="43" fill="#D5A622"/>
<path d="M41.4099 30.1168C40.7028 29.2683 39.4416 29.1536 38.5931 29.8608C37.7445 30.5679 37.6299 31.829 38.337 32.6776L41.4099 30.1168ZM49.0806 42.4458L50.6171 43.7262C51.2351 42.9845 51.2351 41.9072 50.6171 41.1655L49.0806 42.4458ZM38.337 52.2141C37.6299 53.0626 37.7445 54.3238 38.5931 55.0309C39.4416 55.738 40.7028 55.6234 41.4099 54.7748L38.337 52.2141ZM38.337 32.6776L47.5442 43.7262L50.6171 41.1655L41.4099 30.1168L38.337 32.6776ZM47.5442 41.1655L38.337 52.2141L41.4099 54.7748L50.6171 43.7262L47.5442 41.1655ZM43 20C55.7025 20 66 30.2974 66 43H70C70 28.0883 57.9117 16 43 16V20ZM66 43C66 55.7025 55.7025 66 43 66V70C57.9117 70 70 57.9117 70 43H66ZM43 66C30.2975 66 20 55.7025 20 43H16C16 57.9117 28.0883 70 43 70V66ZM20 43C20 30.2975 30.2974 20 43 20V16C28.0883 16 16 28.0883 16 43H20Z" fill="#0D2134"/>
</svg>
