<svg width="54" height="54" viewBox="0 0 54 54" fill="none" xmlns="http://www.w3.org/2000/svg">
<path d="M25.4099 14.1168C24.7028 13.2683 23.4416 13.1536 22.5931 13.8608C21.7445 14.5679 21.6299 15.829 22.337 16.6776L25.4099 14.1168ZM33.0806 26.4458L34.6171 27.7262C35.2351 26.9845 35.2351 25.9072 34.6171 25.1655L33.0806 26.4458ZM22.337 36.2141C21.6299 37.0626 21.7445 38.3238 22.5931 39.0309C23.4416 39.738 24.7028 39.6234 25.4099 38.7748L22.337 36.2141ZM22.337 16.6776L31.5442 27.7262L34.6171 25.1655L25.4099 14.1168L22.337 16.6776ZM31.5442 25.1655L22.337 36.2141L25.4099 38.7748L34.6171 27.7262L31.5442 25.1655ZM27 4C39.7025 4 50 14.2974 50 27H54C54 12.0883 41.9117 -7.15256e-07 27 0V4ZM50 27C50 39.7025 39.7025 50 27 50V54C41.9117 54 54 41.9117 54 27H50ZM27 50C14.2975 50 4 39.7025 4 27H0C5.96046e-07 41.9117 12.0883 54 27 54V50ZM4 27C4 14.2975 14.2974 4 27 4V0C12.0883 5.96046e-07 -7.15256e-07 12.0883 0 27H4Z" fill="#0D2134"/>
</svg>
